<?xml version="1.0" standalone="no"?>
<!DOCTYPE svg PUBLIC "-//W3C//DTD SVG 20010904//EN"
 "http://www.w3.org/TR/2001/REC-SVG-20010904/DTD/svg10.dtd">
<svg version="1.0" xmlns="http://www.w3.org/2000/svg"
 width="80px" height="130px" viewBox="0 0 3600.000000 3600.000000"
 preserveAspectRatio="xMidYMid meet">

<g transform="translate(0.000000,3600.000000) scale(0.100000,-0.100000)"
fill="#000000" stroke="none">
<path d="M17115 35239 c-33 -4 -80 -14 -105 -23 -148 -55 -318 -91 -697 -146
-475 -70 -600 -101 -858 -215 -831 -367 -1536 -940 -2038 -1657 -187 -268
-397 -654 -516 -951 -149 -370 -264 -799 -327 -1215 -16 -106 -18 -112 -38
-106 -46 14 -334 157 -551 274 -504 270 -675 355 -889 440 -320 127 -705 226
-1071 276 -163 22 -628 26 -810 6 -472 -51 -927 -167 -1410 -359 -650 -257
-1189 -608 -1665 -1083 -379 -378 -668 -781 -905 -1265 -495 -1012 -620 -2169
-359 -3338 100 -450 266 -917 485 -1364 49 -100 89 -189 89 -198 0 -12 -14
-15 -69 -15 -258 0 -737 -72 -1071 -161 -1161 -309 -2152 -1072 -2813 -2165
-396 -655 -637 -1355 -724 -2099 -27 -234 -24 -758 6 -1004 98 -811 374 -1558
826 -2241 200 -302 369 -511 625 -773 553 -567 1146 -943 1810 -1148 58 -18
107 -34 109 -35 2 -2 -138 -165 -311 -362 -332 -378 -401 -470 -563 -751 -395
-689 -661 -1545 -736 -2371 -14 -160 -14 -578 0 -740 86 -960 447 -1817 1085
-2580 166 -198 472 -495 694 -673 809 -649 1783 -1034 2825 -1118 217 -17 727
-6 922 20 421 55 785 145 1143 280 l84 31 -6 -27 c-55 -272 -71 -469 -71 -858
1 -396 13 -532 76 -850 250 -1263 1056 -2417 2219 -3177 721 -472 1474 -715
2313 -747 867 -32 1732 153 2532 543 320 156 577 312 835 505 547 410 973 939
1157 1436 12 31 28 55 45 64 15 9 29 13 31 11 2 -3 109 -153 238 -335 129
-181 273 -376 322 -432 553 -646 1399 -1149 2399 -1427 494 -138 846 -188
1313 -190 306 0 422 9 704 55 1169 192 2253 881 3048 1936 329 436 581 911
749 1408 290 863 363 1855 184 2479 -11 38 -18 71 -16 74 3 2 78 -15 168 -37
851 -211 1711 -243 2478 -91 1150 228 2129 848 2857 1811 240 316 481 743 643
1133 158 383 243 720 297 1171 22 190 25 853 5 1065 -149 1534 -819 2896
-1654 3362 -44 25 -82 53 -88 67 -6 13 -9 25 -8 26 2 1 220 115 486 253 265
138 497 261 515 273 673 467 1249 1131 1626 1879 817 1615 735 3401 -223 4865
-316 482 -699 894 -1178 1267 -197 154 -570 389 -803 506 -650 325 -1330 502
-2039 529 -97 3 -176 7 -176 8 0 1 63 173 141 381 287 773 393 1129 473 1599
68 397 58 837 -28 1260 -90 441 -276 975 -480 1383 -321 639 -805 1246 -1371
1717 -692 576 -1484 931 -2335 1045 -201 28 -661 38 -877 21 -391 -32 -772
-109 -1100 -222 -304 -105 -548 -223 -1038 -504 -198 -113 -441 -247 -540
-297 -120 -60 -194 -104 -222 -131 -24 -23 -43 -39 -43 -36 0 4 -83 280 -184
615 -168 560 -189 622 -259 769 -243 516 -500 888 -872 1261 -331 332 -630
550 -1040 760 -661 339 -1408 537 -2330 618 -337 30 -916 49 -1050 35z"/>
</g>
</svg>